<svg width="161" height="173" viewBox="0 0 161 173" fill="none" xmlns="http://www.w3.org/2000/svg">
<g filter="url(#filter0_d_2_215)">
<rect width="112.826" height="117.442" transform="translate(96.2686) scale(1.00054) rotate(55.0113)" fill="#BAE6FF"/>
<g filter="url(#filter1_d_2_215)">
<path d="M122.678 40.0898C121.054 40.5849 121.085 40.5634 107.373 52.7264C101.818 57.6224 97.1186 61.6449 96.9618 61.6172C96.8049 61.5895 96.4299 58.3694 96.1748 54.4696C95.6524 47.0452 94.9176 42.6563 94.0442 41.343C93.0109 39.8667 91.7377 39.7498 90.046 40.9338C88.2622 42.1823 87.1426 43.7908 81.8459 52.7219C77.5028 60.0691 76.3802 61.5422 75.313 61.3269C73.9321 61.0562 71.5732 58.9954 59.9914 47.9474C53.6899 41.9558 47.9051 36.7025 47.1147 36.2934C44.5405 34.8415 43.1595 36.8621 44.1527 40.7035C44.4479 41.78 46.4621 47.0147 48.6239 52.3294C54.6327 67.0032 57.6585 76.433 56.582 77.1864C56.3359 77.3586 54.2599 77.2078 51.9195 76.8755C43.5079 75.6602 37.9873 75.1709 37.0062 75.5368C36.2527 75.8351 36.0097 76.1426 35.945 76.9669C35.8712 77.8434 36.0434 78.0895 37.2213 79.0522C37.984 79.6181 42.4772 82.1096 47.198 84.5334C51.9189 86.9572 56.0953 89.2579 56.489 89.6239C57.6792 90.6697 57.4454 91.3832 55.5631 92.884C54.6219 93.6344 49.75 97.4108 44.7243 101.295C32.9752 110.435 31.3266 112.139 32.5537 113.892C33.9745 115.922 38.2187 115.242 55.1007 110.162C62.3007 108.01 68.5104 106.276 68.8763 106.34C69.4299 106.411 69.4607 106.848 69.0515 108.555C67.9748 112.974 65.9966 124.486 66.1257 125.587C66.4546 128.152 68.0477 128.595 70.1085 126.694C70.7298 126.076 73.9532 122.17 77.315 117.939C80.6461 113.728 83.4419 110.259 83.5465 110.278C83.6511 110.296 84.5029 112.495 85.4162 115.11C87.6517 121.381 91.8401 131.097 93.7775 134.323C95.1644 136.697 95.3889 136.953 96.3392 137.067C98.5321 137.319 98.7997 136.261 101.095 119.899C101.929 113.954 102.827 109.018 103.055 108.95C103.282 108.883 105.626 109.809 108.215 111.02C114.72 114.029 118.949 115.422 120.702 115.112C122.092 114.872 122.154 114.829 122.338 113.783C122.627 112.298 120.336 108.173 116.655 103.372C115.078 101.314 113.786 99.469 113.844 99.2906C113.851 99.103 116.711 99.3923 120.14 99.9707C130.102 101.567 139.131 102.488 141.946 102.122C144.148 101.864 145.043 100.458 143.988 98.951C143.536 98.3051 136.259 94.3249 125.88 88.9882C121.728 86.8535 118.332 85.0142 118.308 84.8481C118.283 84.682 121.491 82.3909 125.4 79.7923C133.505 74.349 134.747 73.1127 133.911 71.5903C133.302 70.4584 132.813 70.4799 123.476 71.6081C115.427 72.6134 112.443 72.8685 112.207 72.5302C112.121 72.4071 112.613 71.1462 113.308 69.6515C113.994 68.2091 115.544 64.9245 116.777 62.3657C120.595 54.3326 124.172 45.8258 124.704 43.5746C125.126 41.9507 125.098 41.191 124.646 40.5451C124.129 39.807 123.816 39.7516 122.678 40.0898ZM121.733 45.7457C120.167 49.7285 115.268 60.5357 112.468 66.1607C110.106 70.8385 109.386 73.0836 110.011 73.9755C110.743 75.0213 114.378 75.043 121.864 74.0193C126.028 73.4874 129.83 73.0263 130.309 73.0571C131.06 73.0818 131.072 73.1648 130.131 73.9152C129.568 74.355 125.991 76.9044 122.199 79.6045L115.278 84.4481L115.767 85.3431C116.136 86.0013 119.682 88.056 128.589 92.7282C135.376 96.2717 141.038 99.3199 141.168 99.5044C141.297 99.6889 141.312 99.9073 141.189 99.9934C140.605 100.402 126.549 98.7839 119.304 97.5317C114.912 96.7564 111.172 96.258 110.926 96.4302C109.88 97.1621 110.24 97.8726 115.406 105.254C118.226 109.283 120.45 112.722 120.361 112.922C120.016 113.804 115.366 112.202 108.163 108.72C103.845 106.61 102.329 106.342 101.274 107.585C100.807 108.095 99.9606 112.582 98.6745 121.089C97.6561 128.08 96.6839 133.893 96.5301 134C95.8227 134.495 93.6855 129.805 89.1374 118.004C84.7554 106.636 84.6908 106.544 82.6609 107.965C82.1072 108.352 79.9665 110.859 77.9334 113.519C72.8061 120.27 68.7584 125.027 68.5001 124.658C68.1772 124.197 69.0478 118.959 70.5552 112.405C72.1303 105.621 72.1611 104.683 71.097 104.144C69.9068 103.557 67.9169 103.987 57.0569 107.327C42.2664 111.859 35.4816 113.492 34.8573 112.6C34.4483 112.016 37.0134 109.854 49.5838 100.185C55.1016 95.9564 58.8939 92.798 59.2353 92.2383C60.6194 89.8948 58.4759 87.6834 51.3224 84.0753C43.6522 80.1874 40.0139 78.1973 40.0693 77.8836C40.1032 77.5392 42.0131 77.7146 49.6096 78.813C56.2128 79.736 58.055 79.6839 58.6333 78.5459C59.9282 75.9441 57.8188 68.8056 50.1249 49.6291C47.0682 42.0539 46.0965 39.1597 46.4964 38.8799C46.8347 38.6431 46.8993 38.7353 58.4596 49.7526C69.8078 60.5977 71.7422 62.3139 73.7874 63.4028C76.8444 65.0207 78.0685 63.889 84.1987 53.5955C88.8924 45.6362 90.7379 42.9698 91.6083 42.773C92.571 42.5117 93.1305 45.6026 93.8158 55.1584C94.4028 63.5916 94.701 65.2616 95.5222 65.1909C95.7098 65.1971 96.5279 64.5328 97.343 63.7332C100.167 61.0238 120.992 43.3775 122.318 42.5872C123.007 42.1966 122.942 42.5626 121.733 45.7457Z" fill="black"/>
</g>
<g filter="url(#filter2_d_2_215)">
<path d="M101.351 73.7135C97.0698 70.0195 89.6794 67.4479 83.8512 67.6321C80.9171 67.7612 76.5498 68.985 73.6279 70.5718C65.3852 74.9663 63.9113 86.2166 70.5756 93.9704C77.3568 101.826 90.3784 105.176 98.2951 101.101C104.646 97.8014 108.464 90.6848 107.415 83.9493C107.049 81.5934 106.742 80.8922 105.004 78.2133C103.731 76.2633 102.403 74.627 101.351 73.7135ZM104.902 84.2875C105.317 86.9755 104.604 90.866 103.173 93.471C102.081 95.3808 101.685 95.796 98.7628 97.8411C95.8102 99.9077 95.315 100.117 93.0637 100.501C90.2095 100.941 84.9319 100.144 81.3059 98.6951C68.5888 93.6197 64.4868 79.9025 73.7139 73.4444C77.7122 70.6458 84.4139 69.0254 88.7012 69.7822C90.971 70.2099 96.7128 73.1104 99.0471 75.0051C101.541 77.0628 104.512 81.7655 104.902 84.2875Z" fill="black"/>
</g>
<path d="M94.0455 85.0128C93.4211 84.5792 92.1324 85.6186 92.2247 86.4705C92.406 88.0391 94.5835 88.073 94.8604 86.5045C94.9804 85.8248 94.7743 85.465 94.0455 85.0128Z" fill="black"/>
<path d="M82.6569 78.366C81.559 78.6304 81.1099 79.4946 81.5988 80.3897C82.1431 81.4292 83.5241 81.2417 83.8317 80.1099C84.0716 79.2088 83.3612 78.1938 82.6569 78.366Z" fill="black"/>
<path d="M84.6673 91.2555C82.7357 92.8824 82.2621 93.1222 81.3025 93.0607C80.343 92.9991 80.1308 92.8269 79.9032 91.978C79.6941 91.0246 80.0664 89.0685 80.7708 87.5216C81.0384 86.9218 80.9738 86.8296 80.3894 86.7803C79.3561 86.6788 77.9904 89.376 78.0948 91.2274C78.2577 94.2753 80.6534 95.6687 83.4461 94.3556C84.7748 93.7006 86.8201 91.5816 87.1401 90.5329C87.4969 89.275 86.8141 89.478 84.6673 91.2555Z" fill="black"/>
</g>
<defs>
<filter id="filter0_d_2_215" x="0" y="0" width="161" height="172.453" filterUnits="userSpaceOnUse" color-interpolation-filters="sRGB">
<feFlood flood-opacity="0" result="BackgroundImageFix"/>
<feColorMatrix in="SourceAlpha" type="matrix" values="0 0 0 0 0 0 0 0 0 0 0 0 0 0 0 0 0 0 127 0" result="hardAlpha"/>
<feOffset dy="12.5815"/>
<feComposite in2="hardAlpha" operator="out"/>
<feColorMatrix type="matrix" values="0 0 0 0 0 0 0 0 0 0 0 0 0 0 0 0 0 0 0.25 0"/>
<feBlend mode="normal" in2="BackgroundImageFix" result="effect1_dropShadow_2_215"/>
<feBlend mode="normal" in="SourceGraphic" in2="effect1_dropShadow_2_215" result="shape"/>
</filter>
<filter id="filter1_d_2_215" x="32.2124" y="35.8217" width="112.217" height="104.421" filterUnits="userSpaceOnUse" color-interpolation-filters="sRGB">
<feFlood flood-opacity="0" result="BackgroundImageFix"/>
<feColorMatrix in="SourceAlpha" type="matrix" values="0 0 0 0 0 0 0 0 0 0 0 0 0 0 0 0 0 0 127 0" result="hardAlpha"/>
<feOffset dy="3.14537"/>
<feComposite in2="hardAlpha" operator="out"/>
<feColorMatrix type="matrix" values="0 0 0 0 0 0 0 0 0 0 0 0 0 0 0 0 0 0 0.25 0"/>
<feBlend mode="normal" in2="BackgroundImageFix" result="effect1_dropShadow_2_215"/>
<feBlend mode="normal" in="SourceGraphic" in2="effect1_dropShadow_2_215" result="shape"/>
</filter>
<filter id="filter2_d_2_215" x="66.3834" y="67.6228" width="41.2042" height="38.3684" filterUnits="userSpaceOnUse" color-interpolation-filters="sRGB">
<feFlood flood-opacity="0" result="BackgroundImageFix"/>
<feColorMatrix in="SourceAlpha" type="matrix" values="0 0 0 0 0 0 0 0 0 0 0 0 0 0 0 0 0 0 127 0" result="hardAlpha"/>
<feOffset dy="3.14537"/>
<feComposite in2="hardAlpha" operator="out"/>
<feColorMatrix type="matrix" values="0 0 0 0 0 0 0 0 0 0 0 0 0 0 0 0 0 0 0.25 0"/>
<feBlend mode="normal" in2="BackgroundImageFix" result="effect1_dropShadow_2_215"/>
<feBlend mode="normal" in="SourceGraphic" in2="effect1_dropShadow_2_215" result="shape"/>
</filter>
</defs>
</svg>
