<svg width="98" height="73" viewBox="0 0 98 73" fill="none" xmlns="http://www.w3.org/2000/svg">
<path d="M32.3272 5.44213C26.2952 14.6912 27.6356 27.6935 34.6059 26.353C39.9677 25.4147 45.3295 10.2677 42.6486 3.43147C40.772 -1.79625 36.6166 -0.99199 32.3272 5.44213Z" fill="#0C0C0C"/>
<path d="M69.9943 7.72053C65.3027 10.8035 63.8282 25.0122 67.4474 32.1166C70.2624 37.4783 74.1496 37.3443 77.6348 31.7144C81.388 25.8165 80.5838 14.6908 76.1603 9.99928C72.8092 6.38009 72.273 6.24604 69.9943 7.72053Z" fill="#0C0C0C"/>
<path d="M0.289642 22.0632C-1.58698 29.4356 5.9195 47.9337 15.1686 58.5232C17.9835 61.8743 23.6133 65.8957 28.9751 68.5765C37.4199 72.7319 38.7603 73 52.0307 73C64.7649 73 66.9096 72.5979 74.5501 69.1127C84.3354 64.5552 97.6057 51.2848 97.6057 45.9231C97.6057 41.2315 94.2546 42.0358 85.0056 49.4082C74.8182 57.4509 69.9926 59.9977 61.5479 61.6062C53.5052 63.0807 40.5029 61.2041 33.3986 57.5849C24.9538 53.2955 12.4877 37.4783 7.52803 24.7441C4.98119 18.31 1.63008 16.9695 0.289642 22.0632Z" fill="#0C0C0C"/>
</svg>
